<svg xmlns="http://www.w3.org/2000/svg" version="1.1" xmlns:xlink="http://www.w3.org/1999/xlink" xmlns:svgjs="http://svgjs.dev/svgjs" width="1000" height="477" viewBox="0 0 1000 477"><g transform="matrix(1,0,0,1,-0.6060590944267688,-0.033778632022944066)"><svg viewBox="0 0 396 189" data-background-color="#ffffff" preserveAspectRatio="xMidYMid meet" height="477" width="1000" xmlns="http://www.w3.org/2000/svg" xmlns:xlink="http://www.w3.org/1999/xlink"><g id="tight-bounds" transform="matrix(1,0,0,1,0.2399994013929927,0.013383986273240112)"><svg viewBox="0 0 395.52 188.97323202745352" height="188.97323202745352" width="395.52"><g><svg viewBox="0 0 395.52 188.97323202745352" height="188.97323202745352" width="395.52"><g transform="matrix(1,0,0,1,0,116.79303862303993)"><svg viewBox="0 0 395.52 72.18019340441359" height="72.18019340441359" width="395.52"><g id="textblocktransform"><svg viewBox="0 0 395.52 72.18019340441359" height="72.18019340441359" width="395.52" id="textblock"><g><svg viewBox="0 0 395.52 72.18019340441359" height="72.18019340441359" width="395.52"><g transform="matrix(1,0,0,1,0,0)"><svg width="395.52" viewBox="4.75 -36.79999923706055 201.63999938964844 36.79999923706055" height="72.18019340441359" data-palette-color="#27292a"><path d="M4.75 0L4.75-36.8 27.75-36.8 27.75-29.8 12-29.8 12-21.45 25.65-21.45 25.65-14.45 12-14.45 12 0 4.75 0ZM34.75 0L34.75-36.8 42-36.8 42 0 34.75 0ZM49-29.8L49-36.8 73.8-36.8 73.8-29.8 64.84-29.8 64.84 0 57.6 0 57.6-29.8 49-29.8ZM80.79 0L80.79-36.8 103.79-36.8 103.79-29.8 88.04-29.8 88.04-21.45 101.69-21.45 101.69-14.45 88.04-14.45 88.04 0 80.79 0ZM110.79 0L110.79-36.8 118.04-36.8 118.04-7 135.34-7 135.34 0 110.79 0ZM142.84 0L142.84-36.8 167.94-36.8 167.94-29.8 150.09-29.8 150.09-21.95 165.89-21.95 165.89-14.95 150.09-14.95 150.09-7 168.64-7 168.64 0 142.84 0ZM197.04 0L173.14-36.8 182.39-36.8 206.39 0 197.04 0ZM181.64 0L172.64 0 185.74-20.6 189.14-13.3 181.64 0ZM193.39-17.05L189.64-23.3 197.24-36.8 206.04-36.8 193.39-17.05Z" opacity="1" transform="matrix(1,0,0,1,0,0)" fill="#27292a" class="wordmark-text-0" data-fill-palette-color="primary" id="text-0"></path></svg></g></svg></g></svg></g></svg></g><g transform="matrix(1,0,0,1,139.8834863575502,0)"><svg viewBox="0 0 115.75302728489959 99.75302728489959" height="99.75302728489959" width="115.75302728489959"><g><svg xmlns="http://www.w3.org/2000/svg" xmlns:xlink="http://www.w3.org/1999/xlink" version="1.1" x="8" y="0" viewBox="0 0 60 60" enable-background="new 0 0 60 60" xml:space="preserve" height="99.75302728489959" width="99.75302728489959" class="icon-icon-0" data-fill-palette-color="accent" id="icon-0"><g fill="#fdc500" data-fill-palette-color="accent"><path d="M25 21.99c1.77 0 3.54-0.56 5-1.68 1.46 1.12 3.23 1.68 5 1.68 2.06 0 4.12-0.76 5.69-2.27 0.4-0.38 0.41-1.02 0.03-1.41-0.38-0.4-1.02-0.41-1.41-0.03-2.37 2.29-6.24 2.29-8.61 0-0.05-0.05-0.11-0.07-0.16-0.1-0.05-0.03-0.1-0.08-0.16-0.1-0.06-0.03-0.13-0.03-0.2-0.04C30.12 18.02 30.06 18 30 18c-0.06 0-0.12 0.02-0.18 0.03-0.07 0.01-0.13 0.02-0.2 0.04-0.06 0.02-0.11 0.07-0.16 0.1-0.05 0.03-0.11 0.06-0.16 0.1-2.37 2.29-6.24 2.29-8.61 0-0.4-0.38-1.03-0.37-1.41 0.03-0.38 0.4-0.37 1.03 0.03 1.41C20.88 21.23 22.94 21.99 25 21.99z" fill="#fdc500" data-fill-palette-color="accent"></path><path d="M36.19 28.41C35.45 29.44 34.49 30 33.5 30s-1.95-0.56-2.69-1.59c-0.03-0.04-0.08-0.07-0.11-0.1-0.04-0.04-0.06-0.09-0.11-0.12-0.01-0.01-0.03-0.01-0.04-0.02-0.06-0.04-0.13-0.06-0.19-0.09-0.06-0.02-0.11-0.05-0.17-0.06-0.06-0.01-0.13-0.01-0.2-0.01-0.06 0-0.12-0.01-0.18 0.01-0.06 0.01-0.12 0.04-0.17 0.06-0.06 0.03-0.13 0.05-0.19 0.09-0.01 0.01-0.03 0.01-0.04 0.02-0.05 0.03-0.07 0.08-0.11 0.12-0.04 0.04-0.08 0.06-0.11 0.1C28.45 29.44 27.49 30 26.5 30s-1.95-0.56-2.69-1.59c-0.32-0.45-0.95-0.55-1.4-0.22-0.45 0.32-0.55 0.95-0.22 1.4C23.32 31.14 24.85 32 26.5 32c1.28 0 2.49-0.52 3.5-1.49 1.01 0.96 2.22 1.49 3.5 1.49 1.65 0 3.18-0.86 4.31-2.41 0.32-0.45 0.22-1.07-0.22-1.4C37.14 27.87 36.52 27.97 36.19 28.41z" fill="#fdc500" data-fill-palette-color="accent"></path><path d="M60 30c0-7.08-2.47-13.6-6.6-18.74l0.01-0.03-0.3-0.37C50 7.12 46.1 4.25 41.76 2.4c-0.04-0.02-0.08-0.04-0.12-0.05-0.36-0.15-0.72-0.29-1.08-0.43-0.13-0.05-0.27-0.1-0.4-0.15-0.31-0.11-0.63-0.22-0.94-0.32-0.19-0.06-0.39-0.12-0.58-0.18-0.28-0.08-0.56-0.16-0.84-0.24-0.24-0.06-0.48-0.12-0.73-0.18-0.25-0.06-0.5-0.12-0.76-0.18-0.28-0.06-0.56-0.11-0.84-0.16C35.23 0.46 35 0.42 34.77 0.38c-0.31-0.05-0.63-0.09-0.95-0.13-0.21-0.03-0.41-0.06-0.62-0.08-0.36-0.04-0.72-0.06-1.08-0.09-0.17-0.01-0.34-0.03-0.51-0.04C31.08 0.02 30.54 0 30 0s-1.08 0.02-1.61 0.04c-0.17 0.01-0.34 0.03-0.51 0.04-0.36 0.03-0.72 0.05-1.08 0.09-0.21 0.02-0.41 0.05-0.62 0.08-0.32 0.04-0.63 0.08-0.95 0.13C25 0.42 24.77 0.46 24.54 0.51c-0.28 0.05-0.56 0.1-0.84 0.16-0.25 0.05-0.51 0.11-0.76 0.18-0.24 0.06-0.49 0.12-0.73 0.18-0.28 0.08-0.56 0.16-0.84 0.24-0.2 0.06-0.39 0.12-0.58 0.18-0.32 0.1-0.63 0.21-0.94 0.32-0.13 0.05-0.27 0.1-0.4 0.15-0.36 0.14-0.72 0.28-1.08 0.43-0.04 0.02-0.08 0.04-0.12 0.05C13.9 4.25 10 7.12 6.89 10.87l-0.14 0.2C2.53 16.23 0 22.83 0 30c0 7.86 3.04 15.02 8 20.37v0.02l0.28 0.29c0.09 0.1 0.19 0.18 0.29 0.28 0.29 0.3 0.6 0.59 0.9 0.88 0.25 0.23 0.5 0.46 0.76 0.69 0.3 0.26 0.61 0.53 0.92 0.78 0.23 0.18 0.46 0.36 0.69 0.54 0.28 0.21 0.56 0.41 0.84 0.62 0.34 0.24 0.69 0.48 1.05 0.71 0.31 0.2 0.62 0.4 0.93 0.59 0.25 0.15 0.51 0.3 0.77 0.44 0.31 0.18 0.63 0.34 0.95 0.51 0.26 0.13 0.52 0.27 0.78 0.39 0.46 0.22 0.93 0.43 1.41 0.62 0.22 0.09 0.44 0.18 0.66 0.26 0.42 0.16 0.84 0.31 1.27 0.46 0.17 0.06 0.33 0.12 0.49 0.17 0.58 0.18 1.18 0.35 1.78 0.5 0.05 0.01 0.11 0.03 0.16 0.04l0.07 0.01C25.24 59.71 27.58 60 30 60c2.42 0 4.77-0.3 7.03-0.84l0.07-0.01c0.05-0.01 0.1-0.03 0.15-0.04 0.6-0.15 1.19-0.32 1.78-0.5 0.17-0.05 0.33-0.11 0.49-0.17 0.43-0.14 0.85-0.29 1.26-0.46 0.22-0.09 0.44-0.17 0.66-0.26 0.48-0.2 0.95-0.41 1.41-0.63 0.27-0.13 0.52-0.26 0.79-0.4 0.31-0.16 0.63-0.33 0.93-0.5 0.26-0.15 0.52-0.29 0.78-0.45 0.3-0.18 0.6-0.37 0.9-0.57 0.37-0.24 0.74-0.49 1.1-0.75 0.27-0.19 0.54-0.39 0.8-0.59 0.24-0.18 0.48-0.37 0.71-0.56 0.29-0.24 0.58-0.48 0.86-0.73 0.29-0.25 0.57-0.51 0.84-0.77 0.28-0.27 0.57-0.54 0.84-0.82 0.1-0.1 0.21-0.19 0.3-0.3L52 50.38v-0.02C56.96 45.01 60 37.86 60 30zM49.83 49.74c-0.17 0.17-0.34 0.32-0.51 0.49-0.38 0.37-0.78 0.72-1.18 1.07-0.14 0.12-0.29 0.25-0.43 0.37-0.24 0.2-0.49 0.39-0.75 0.59-0.14 0.11-0.29 0.22-0.43 0.32-0.26 0.19-0.53 0.38-0.79 0.57-0.13 0.09-0.26 0.17-0.39 0.26-0.91 0.6-1.86 1.15-2.84 1.64-0.18 0.09-0.35 0.18-0.53 0.26-0.26 0.12-0.52 0.24-0.78 0.35-0.22 0.1-0.44 0.19-0.66 0.28-0.24 0.1-0.48 0.2-0.73 0.29-0.28 0.11-0.57 0.2-0.86 0.3-0.15 0.05-0.31 0.11-0.46 0.16 3.45-4.17 7.53-6.83 11.51-7.48v0.37C49.95 49.62 49.89 49.69 49.83 49.74zM27 39v-2h6v2H27zM21 42.5c0 2.72-0.9 5.36-2.55 7.53-2.58-1.54-5.47-2.51-8.45-2.86V41h10.9C20.97 41.51 21 42.01 21 42.5zM20.98 56.5c-0.26-0.09-0.52-0.18-0.78-0.28-0.26-0.1-0.51-0.2-0.76-0.3-0.21-0.09-0.42-0.17-0.62-0.26-0.27-0.12-0.54-0.24-0.81-0.36-0.17-0.08-0.34-0.17-0.5-0.25-0.99-0.49-1.94-1.04-2.85-1.65-0.13-0.09-0.26-0.17-0.39-0.26-0.27-0.18-0.53-0.37-0.78-0.56-0.15-0.11-0.3-0.22-0.45-0.33-0.25-0.19-0.49-0.38-0.73-0.58-0.16-0.13-0.31-0.26-0.46-0.4-0.37-0.32-0.73-0.64-1.08-0.98-0.19-0.19-0.39-0.37-0.58-0.56-0.05-0.05-0.11-0.11-0.16-0.17V49.2c5.15 0.83 9.22 4.75 11.5 7.48C21.33 56.62 21.15 56.56 20.98 56.5zM22.59 39L22.59 39 10 38.99V37h15v2H22.59zM9.35 15.49C10.69 16.45 12.29 17 14 17c0.55 0 1-0.45 1-1s-0.45-1-1-1c-2.18 0-4.18-1.18-5.24-3.08-0.01-0.04-0.01-0.08-0.02-0.12 2.51-2.93 5.61-5.34 9.12-7.04 0 0 0.01 0 0.01-0.01 0.36-0.18 0.73-0.34 1.1-0.5 0.08-0.03 0.15-0.07 0.23-0.1 0.32-0.14 0.65-0.26 0.98-0.39 0.13-0.05 0.26-0.1 0.4-0.14 0.29-0.1 0.59-0.2 0.88-0.3 0.18-0.06 0.36-0.11 0.54-0.16 0.26-0.08 0.53-0.16 0.8-0.23 0.22-0.06 0.44-0.11 0.66-0.16 0.24-0.06 0.48-0.11 0.72-0.17 0.26-0.05 0.51-0.1 0.77-0.15 0.21-0.04 0.43-0.08 0.64-0.11 0.29-0.05 0.59-0.08 0.88-0.12 0.19-0.02 0.38-0.05 0.57-0.07 0.34-0.04 0.67-0.06 1.01-0.08 0.15-0.01 0.31-0.03 0.46-0.04C29.01 2.01 29.5 2 30 2s0.99 0.01 1.49 0.04c0.15 0.01 0.31 0.02 0.46 0.04 0.34 0.02 0.67 0.05 1.01 0.08 0.19 0.02 0.38 0.05 0.57 0.07 0.29 0.04 0.59 0.07 0.88 0.12 0.22 0.03 0.43 0.08 0.64 0.11 0.26 0.05 0.52 0.09 0.77 0.15 0.24 0.05 0.48 0.11 0.72 0.17 0.22 0.05 0.44 0.11 0.66 0.16 0.27 0.07 0.53 0.15 0.8 0.23 0.18 0.05 0.36 0.11 0.53 0.16 0.3 0.1 0.59 0.2 0.89 0.3 0.13 0.05 0.26 0.09 0.39 0.14 0.33 0.12 0.66 0.25 0.98 0.39 0.08 0.03 0.15 0.07 0.23 0.1 0.37 0.16 0.74 0.33 1.11 0.5 0 0 0.01 0 0.01 0 3.51 1.7 6.61 4.11 9.12 7.04-0.01 0.04-0.01 0.08-0.02 0.12C50.17 13.82 48.18 15 46 15c-0.55 0-1 0.45-1 1s0.45 1 1 1c1.71 0 3.31-0.55 4.64-1.51C50.22 18.51 50 21.55 50 24.58V35h-7.38l2.28-4.55c0.25-0.49 0.05-1.09-0.45-1.34-0.5-0.25-1.09-0.05-1.34 0.45L40.38 35H35 25h-5.38l-2.72-5.45c-0.25-0.49-0.85-0.69-1.34-0.45-0.49 0.25-0.69 0.85-0.45 1.34L17.38 35H10V24.58C10 21.55 9.78 18.52 9.35 15.49zM35 37h15v2l-12.59 0 0 0H35V37zM39.1 41H50v6.17c-2.98 0.35-5.87 1.33-8.46 2.86C39.9 47.86 39 45.22 39 42.5 39 42.01 39.03 41.51 39.1 41zM52 47.29V47v-8h0v-2-2V24.58c0-3.55 0.32-7.11 0.92-10.64C56.11 18.49 58 24.03 58 30 58 36.52 55.75 42.52 52 47.29zM7.09 13.94C7.68 17.45 8 21.02 8 24.58V35v2 4h0v6 0.29C4.25 42.53 2 36.52 2 30 2 24.03 3.89 18.49 7.09 13.94zM24.52 57.46c-0.04-0.14-0.1-0.28-0.19-0.41-1.47-2.02-3.08-3.76-4.77-5.21C21.77 49.22 23 45.92 23 42.5c0-0.49-0.03-0.99-0.09-1.5H25h4v6c0 0.55 0.45 1 1 1s1-0.45 1-1v-6h4 2.09C37.03 41.51 37 42.01 37 42.5c0 3.42 1.23 6.73 3.45 9.34-1.69 1.45-3.3 3.19-4.77 5.2-0.09 0.13-0.15 0.27-0.19 0.41C33.71 57.81 31.88 58 30 58 28.12 58 26.29 57.81 24.52 57.46z" fill="#fdc500" data-fill-palette-color="accent"></path></g></svg></g></svg></g><g><rect width="139.8834863575502" height="6.509284331169611" y="92.24374295372998" x="255.63651364244978" fill="#fdc500" data-fill-palette-color="accent"></rect><rect width="139.8834863575502" height="6.509284331169611" y="92.24374295372998" x="0" fill="#fdc500" data-fill-palette-color="accent"></rect><rect width="139.8834863575502" height="6.509284331169611" y="79.22517429139076" x="255.63651364244978" fill="#fdc500" data-fill-palette-color="accent"></rect><rect width="139.8834863575502" height="6.509284331169611" y="79.22517429139076" x="0" fill="#fdc500" data-fill-palette-color="accent"></rect></g></svg></g><defs></defs></svg><rect width="395.52" height="188.97323202745352" fill="none" stroke="none" visibility="hidden"></rect></g></svg></g></svg>